#!OML:ASF H:\Pregnant\Project 1\Capture day 1\Session 1\femalepreg.ASF
:FULLY-SPECIFIED
:DEGREES
290
root 7.52949 15.5845 16.1095 21.9032 -7.65194 -2.47337
lowerback -10.588 -3.05722 3.85579
upperback -3.08266 -4.60507 3.4587
thorax 2.6922 -2.29131 0.844553
lowerneck -9.87726 -7.29102 -3.01124
upperneck 14.4203 -9.91597 2.93225
head 6.29984 -4.74454 0.572692
rclavicle -6.75868e-014 3.97569e-015
rhumerus -36.165 -8.2971 -73.4732
rradius 34.4008
rwrist -6.70662
rhand -12.4921 -15.7169
rfingers 7.12502
rthumb 13.5828 -45.2538
lclavicle -6.75868e-014 3.97569e-015
lhumerus -34.7134 13.0696 61.404
lradius 40.7088
lwrist 40.5682
lhand -21.0097 -6.05705
lfingers 7.12502
lthumb 5.36499 23.855
rfemur -26.9812 13.213 28.0554
rtibia 30.5338
rfoot -18.0341 -1.89992
rtoes -8.63722
lfemur -64.1275 -2.47989 -22.6864
ltibia 51.3147
lfoot -0.725541 4.78293
ltoes -23.8858
291
root 7.51277 15.5635 16.2021 21.943 -7.86577 -2.66646
lowerback -10.6666 -3.09687 3.74925
upperback -3.02116 -4.6484 3.28954
thorax 2.79337 -2.3109 0.716297
lowerneck -9.98604 -7.3639 -3.1604
upperneck 14.3083 -10.025 3.18731
head 6.30766 -4.7852 0.662645
rclavicle -3.37934e-015 -1.39149e-014
rhumerus -36.5223 -7.68415 -73.8197
rradius 34.4737
rwrist -6.59041
rhand -12.6187 -15.6364
rfingers 7.12502
rthumb 13.4608 -45.1815
lclavicle -3.37934e-015 -1.39149e-014
lhumerus -34.349 13.1611 61.4939
lradius 40.4098
lwrist 40.3691
lhand -21.0571 -6.04401
lfingers 7.12502
lthumb 5.31918 23.8692
rfemur -26.5633 13.3195 28.3092
rtibia 30.4757
rfoot -18.2813 -1.83719
rtoes -8.91045
lfemur -63.5107 -2.99711 -21.6918
ltibia 49.0323
lfoot -0.962837 4.73336
ltoes -23.7412
292
root 7.49604 15.5428 16.2968 21.9855 -8.07004 -2.86584
lowerback -10.759 -3.13655 3.64814
upperback -2.95624 -4.69284 3.12437
thorax 2.9054 -2.33081 0.587946
lowerneck -10.1107 -7.4353 -3.30207
upperneck 14.2145 -10.133 3.44096
head 6.3239 -4.82454 0.749952
rclavicle 9.70566e-014 -7.15625e-015
rhumerus -36.877 -7.10005 -74.1387
rradius 34.5394
rwrist -6.4577
rhand -12.7287 -15.5686
rfingers 7.12502
rthumb 13.3547 -45.1206
lclavicle 9.70566e-014 -7.15625e-015
lhumerus -33.9883 13.2606 61.598
lradius 40.0862
lwrist 40.1676
lhand -21.1223 -6.04216
lfingers 7.12502
lthumb 5.25627 23.8726
rfemur -26.1266 13.416 28.5694
rtibia 30.3996
rfoot -18.5141 -1.75615
rtoes -9.1944
lfemur -62.8981 -3.5773 -20.625
ltibia 46.8129
lfoot -1.23123 4.67888
ltoes -23.6279
293
root 7.47922 15.5223 16.393 22.0313 -8.26515 -3.06622
lowerback -10.8628 -3.1771 3.54883
upperback -2.88837 -4.73875 2.95909
thorax 3.02653 -2.35122 0.457337
lowerneck -10.2516 -7.50493 -3.44019
upperneck 14.1396 -10.241 3.70437
head 6.34977 -4.86228 0.838586
rclavicle -1.17382e-013 -3.37934e-015
rhumerus -37.2218 -6.55146 -74.4352
rradius 34.589
rwrist -6.31678
rhand -12.8243 -15.5074
rfingers 7.12502
rthumb 13.2625 -45.0654
lclavicle -1.17382e-013 -3.37934e-015
lhumerus -33.6307 13.3636 61.711
lradius 39.7409
lwrist 39.9638
lhand -21.1976 -6.04236
lfingers 7.12502
lthumb 5.18356 23.8742
rfemur -25.6819 13.505 28.83
rtibia 30.3154
rfoot -18.7336 -1.66311
rtoes -9.48283
lfemur -62.2956 -4.22145 -19.492
ltibia 44.6572
lfoot -1.51375 4.61621
ltoes -23.5686
294
root 7.46206 15.5012 16.4896 22.0752 -8.4508 -3.25654
lowerback -10.9512 -3.22443 3.43001
upperback -2.82708 -4.78976 2.79544
thorax 3.13383 -2.37459 0.339543
lowerneck -10.3955 -7.57145 -3.57953
upperneck 14.0832 -10.3467 3.97719
head 6.38298 -4.89785 0.929929
rclavicle -1.4064e-014 1.09332e-015
rhumerus -37.5592 -6.03685 -74.7033
rradius 34.611
rwrist -6.16906
rhand -12.8932 -15.4456
rfingers 7.12502
rthumb 13.1962 -45.008
lclavicle -1.4064e-014 1.09332e-015
lhumerus -33.2937 13.4719 61.8281
lradius 39.3813
lwrist 39.76
lhand -21.2728 -6.0835
lfingers 7.12502
lthumb 5.11099 23.8349
rfemur -25.2402 13.5957 29.0807
rtibia 30.2357
rfoot -18.9338 -1.57218
rtoes -9.80295
lfemur -61.7097 -4.92591 -18.3082
ltibia 42.5665
lfoot -1.78471 4.54496
ltoes -23.552
295
root 7.44454 15.4798 16.5863 22.1186 -8.62778 -3.43213
lowerback -11.0212 -3.27867 3.28879
upperback -2.77813 -4.8453 2.62974
thorax 3.21968 -2.40085 0.232866
lowerneck -10.5271 -7.63513 -3.72122
upperneck 14.0421 -10.4515 4.26345
head 6.42026 -4.93193 1.02598
rclavicle -3.44876e-014 -1.61513e-015
rhumerus -37.9003 -5.55015 -74.9504
rradius 34.6114
rwrist -6.03117
rhand -12.9439 -15.3882
rfingers 7.12502
rthumb 13.1472 -44.9537
lclavicle -3.44876e-014 -1.61513e-015
lhumerus -32.9869 13.5789 61.9427
lradius 39.0125
lwrist 39.5614
lhand -21.3323 -6.1233
lfingers 7.12502
lthumb 5.05347 23.7964
rfemur -24.8075 13.6889 29.3161
rtibia 30.1653
rfoot -19.1189 -1.49591
rtoes -10.1718
lfemur -61.1513 -5.68568 -17.0867
ltibia 40.5507
lfoot -2.01405 4.4801
ltoes -23.5899
